<svg xmlns="http://www.w3.org/2000/svg" viewBox="0 0 360 122"><path fill="#fff" fill-rule="evenodd" d="M 169,96 L171,97 L176,93 L181,93 L184,98 L198,91 L200,95 L202,95 L208,90 L207,96 L219,94 L220,97 L224,91 L232,97 L237,89 L236,88 L232,93 L223,89 L223,86 L211,89 L209,87 L203,93 L201,89 L197,91 L188,88 L186,94 L185,84ZM 189,92 L190,89 L195,91 L192,93ZM 217,89 L222,88 L223,90 L221,93ZM 183,88 L184,92 L182,93 L179,91ZM 236,97 L239,96 L241,92 L242,96 L246,97 L255,91 L256,95 L260,95 L264,92 L265,95 L270,93 L272,97 L281,97 L286,95 L281,92 L281,90 L289,90 L291,88 L278,90 L277,88 L265,88 L259,94 L258,91 L260,88 L257,87 L255,90 L250,88 L242,93 L241,91 L245,85 L258,83 L243,84 L238,86 L242,87ZM 272,92 L276,90 L283,95 L275,96ZM 252,91 L248,95 L243,94 L247,90ZM 308,51 L305,51 L298,58 L297,52 L285,58 L286,60 L292,57 L287,78 L292,78 L296,63 L302,57 L308,55ZM 192,39 L189,40 L189,45 L194,43ZM 286,73 L279,74 L285,52 L270,55 L262,63 L259,72 L252,76 L251,73 L256,59 L256,53 L254,52 L244,57 L243,53 L240,52 L231,58 L228,52 L217,59 L213,53 L203,52 L227,44 L225,43 L207,47 L192,54 L186,52 L180,55 L177,59 L183,56 L184,58 L159,80 L158,78 L173,25 L171,20 L167,20 L130,58 L112,69 L99,73 L80,74 L68,70 L62,61 L65,50 L57,61 L55,69 L58,74 L55,75 L41,66 L25,47 L28,57 L40,70 L57,77 L68,77 L69,79 L75,80 L103,77 L122,70 L141,59 L154,59 L152,73 L145,93 L145,100 L150,101 L156,95 L165,82 L179,68 L180,79 L187,77 L192,71 L196,78 L204,79 L212,74 L216,68 L217,60 L224,56 L220,78 L225,77 L229,62 L237,56 L238,59 L233,78 L238,77 L242,62 L249,56 L251,59 L246,73 L247,79 L251,79 L257,74 L261,79 L266,79 L272,75 L274,79 L277,79ZM 277,56 L278,59 L274,70 L266,75 L264,68 L267,61 L271,57ZM 208,55 L211,59 L211,68 L208,74 L203,77 L199,74 L198,65 L201,58ZM 199,54 L193,65 L193,70 L185,75 L188,61ZM 157,42 L157,49 L151,51Z"/></svg>