<svg xmlns="http://www.w3.org/2000/svg" viewBox="0 0 180 90" role="img"><path fill="#fff" fill-rule="evenodd" d="M 172 27 L 171 25 L 168 23 L 164 25 L 163 24 L 164 22 L 164 20 L 162 17 L 158 17 L 156 18 L 156 19 L 154 21 L 152 18 L 150 17 L 148 17 L 145 19 L 145 24 L 148 27 L 147 28 L 145 27 L 141 27 L 138 30 L 138 33 L 140 36 L 142 36 L 143 37 L 145 36 L 149 36 L 151 38 L 148 41 L 145 41 L 142 43 L 141 42 L 140 43 L 139 42 L 139 40 L 136 38 L 135 39 L 133 39 L 131 42 L 128 42 L 126 44 L 125 42 L 122 41 L 120 42 L 117 45 L 115 43 L 109 41 L 108 39 L 106 38 L 103 39 L 101 35 L 98 33 L 94 33 L 92 35 L 89 33 L 84 33 L 83 34 L 83 44 L 82 45 L 81 44 L 80 45 L 77 45 L 76 44 L 76 36 L 72 33 L 68 33 L 66 36 L 61 36 L 59 39 L 59 42 L 58 43 L 57 42 L 53 42 L 51 45 L 52 46 L 52 48 L 51 49 L 50 48 L 46 48 L 43 54 L 42 53 L 42 46 L 41 45 L 38 45 L 36 46 L 35 48 L 34 47 L 34 43 L 31 40 L 27 40 L 24 43 L 23 45 L 23 48 L 21 51 L 20 50 L 20 42 L 19 40 L 17 38 L 12 38 L 9 41 L 9 44 L 13 50 L 13 53 L 12 54 L 10 52 L 9 49 L 6 47 L 3 47 L 0 50 L 0 54 L 3 57 L 7 59 L 6 60 L 4 60 L 2 61 L 0 63 L 0 68 L 2 70 L 6 70 L 8 68 L 12 68 L 15 71 L 17 72 L 22 72 L 24 71 L 28 67 L 31 69 L 35 69 L 37 68 L 40 64 L 46 64 L 47 63 L 51 63 L 52 64 L 55 64 L 58 62 L 60 62 L 63 64 L 65 64 L 68 62 L 71 64 L 73 64 L 74 63 L 77 63 L 78 64 L 82 64 L 83 63 L 91 63 L 92 62 L 94 63 L 96 63 L 97 64 L 99 64 L 102 62 L 104 62 L 107 64 L 111 64 L 117 61 L 119 63 L 121 63 L 122 64 L 125 64 L 128 62 L 130 64 L 132 64 L 135 62 L 137 62 L 139 64 L 143 62 L 147 64 L 150 64 L 152 63 L 156 59 L 156 57 L 157 56 L 157 53 L 154 49 L 156 44 L 157 43 L 160 43 L 162 42 L 165 39 L 165 35 L 167 32 L 169 32 L 172 29 Z M 135 51 L 136 52 L 136 54 L 135 55 L 134 54 L 134 52 Z M 109 50 L 110 51 L 110 53 L 109 54 L 107 54 L 106 52 Z M 33 50 L 34 51 L 34 58 L 33 59 L 29 59 L 28 60 L 26 58 L 28 54 L 32 50 Z M 52 48 L 54 51 L 53 53 L 51 51 L 51 49 Z M 154 23 L 155 22 L 156 23 L 155 24 Z"/></svg>